<svg width="27" height="28" viewBox="0 0 27 28" fill="none" xmlns="http://www.w3.org/2000/svg">
<path d="M20.0769 6.46094H6.92308C6.14783 6.46094 5.40433 6.7689 4.85615 7.31709C4.30797 7.86527 4 8.60877 4 9.38401V16.6917C4 17.467 4.30797 18.2105 4.85615 18.7586C5.40433 19.3068 6.14783 19.6148 6.92308 19.6148H14.9615L19.3462 22.5379V19.6148H20.0769C20.8522 19.6148 21.5957 19.3068 22.1438 18.7586C22.692 18.2105 23 17.467 23 16.6917V9.38401C23 8.60877 22.692 7.86527 22.1438 7.31709C21.5957 6.7689 20.8522 6.46094 20.0769 6.46094Z" stroke="#ED4592" stroke-width="2" stroke-linecap="round" stroke-linejoin="round"/>
<circle cx="8.49214" cy="13.7897" r="1.65498" fill="#ED4592"/>
<circle cx="13.2207" cy="13.7897" r="1.65498" fill="#ED4592"/>
<circle cx="17.9492" cy="13.7897" r="1.65498" fill="#ED4592"/>
</svg>
