<svg width="120" height="120" viewBox="0 0 120 120" fill="none" xmlns="http://www.w3.org/2000/svg">
<g clip-path="url(#clip0_2827_2660)">
<path d="M111.271 26.8628L64.1158 1.06138C62.8558 0.365184 61.4399 0 60.0004 0C58.5609 0 57.1449 0.365184 55.885 1.06138L8.72979 26.8735C7.38312 27.6103 6.25898 28.6952 5.47475 30.0148C4.69052 31.3344 4.27497 32.8404 4.27148 34.3754V85.6246C4.27497 87.1597 4.69052 88.6656 5.47475 89.9853C6.25898 91.3049 7.38312 92.3898 8.72979 93.1266L55.885 118.939C57.1449 119.635 58.5609 120 60.0004 120C61.4399 120 62.8558 119.635 64.1158 118.939L111.271 93.1266C112.618 92.3898 113.742 91.3049 114.526 89.9853C115.31 88.6656 115.726 87.1597 115.729 85.6246V34.3808C115.729 32.843 115.314 31.3337 114.53 30.011C113.746 28.6883 112.62 27.6009 111.271 26.8628ZM60.0004 8.56334L103.051 32.141L87.0986 40.8754L44.0426 17.2978L60.0004 8.56334ZM60.0004 55.7186L16.9498 32.141L35.1153 22.1955L78.1658 45.7731L60.0004 55.7186ZM12.8452 39.6429L55.7135 63.1026V109.074L12.8452 85.63V39.6429ZM107.156 85.6085L64.2872 109.074V63.1241L81.4346 53.7413V72.8659C81.4333 73.4297 81.5433 73.9881 81.7582 74.5093C81.9731 75.0305 82.2887 75.5041 82.6869 75.9032C83.085 76.3023 83.558 76.6189 84.0787 76.8349C84.5995 77.0509 85.1577 77.1621 85.7214 77.1621C86.2851 77.1621 86.8434 77.0509 87.3641 76.8349C87.8848 76.6189 88.3578 76.3023 88.756 75.9032C89.1541 75.5041 89.4697 75.0305 89.6846 74.5093C89.8995 73.9881 90.0095 73.4297 90.0082 72.8659V49.0472L107.156 39.6428V85.6085Z" fill="black" fill-opacity="0.1"/>
<path d="M44.0403 76.6179C43.3909 76.6181 42.751 76.4626 42.1741 76.1643L21.3949 65.4364C20.4348 64.9405 19.7108 64.0835 19.3823 63.054C19.0538 62.0245 19.1476 60.9066 19.6431 59.9462C19.8885 59.4706 20.2252 59.0481 20.634 58.7027C21.0427 58.3573 21.5155 58.0957 22.0253 57.9331C22.5352 57.7704 23.0721 57.7097 23.6053 57.7546C24.1386 57.7994 24.6578 57.9488 25.1333 58.1943L45.9126 68.9222C46.7247 69.3412 47.3724 70.021 47.7515 70.8524C48.1307 71.6838 48.2194 72.6186 48.0034 73.5065C47.7874 74.3944 47.2792 75.1839 46.5604 75.7482C45.8417 76.3124 44.9541 76.6188 44.0403 76.6179Z" fill="#ED4592"/>
</g>
<defs>
<clipPath id="clip0_2827_2660">
<rect width="111.458" height="120" fill="white" transform="translate(4.27148)"/>
</clipPath>
</defs>
</svg>
