<svg width="121" height="120" viewBox="0 0 121 120" fill="none" xmlns="http://www.w3.org/2000/svg">
<g clip-path="url(#clip0_2827_2659)">
<path d="M111.928 17.1426H9.0714C6.79813 17.1426 4.61796 18.0456 3.01051 19.6531C1.40307 21.2605 0.500006 23.4407 0.5 25.714V94.2854C0.499994 95.411 0.721696 96.5256 1.15245 97.5656C1.5832 98.6055 2.21456 99.5504 3.01049 100.346C3.80642 101.142 4.75132 101.774 5.79126 102.204C6.83119 102.635 7.94579 102.857 9.0714 102.857H111.928C113.054 102.857 114.169 102.635 115.209 102.204C116.249 101.774 117.193 101.142 117.989 100.346C118.785 99.5504 119.417 98.6055 119.847 97.5656C120.278 96.5257 120.5 95.411 120.5 94.2854V25.714C120.5 24.5884 120.278 23.4738 119.847 22.4338C119.417 21.3939 118.785 20.449 117.989 19.6531C117.193 18.8571 116.249 18.2258 115.209 17.795C114.169 17.3643 113.054 17.1426 111.928 17.1426ZM111.928 94.2854H9.0714V47.1426H111.928V94.2854ZM111.928 38.5712H9.0714V25.714H111.928V38.5712Z" fill="black" fill-opacity="0.1"/>
<path d="M103.357 81.4283C103.357 82.5649 102.905 83.655 102.102 84.4587C101.298 85.2625 100.208 85.714 99.0712 85.714H81.9283C80.7929 85.7122 79.7045 85.2599 78.9023 84.4563C78.1 83.6528 77.6494 82.5638 77.6494 81.4283C77.6494 80.2928 78.1 79.2038 78.9023 78.4002C79.7045 77.5967 80.7929 77.1444 81.9283 77.1426H99.0712C100.208 77.1426 101.298 77.5941 102.102 78.3978C102.905 79.2016 103.357 80.2916 103.357 81.4283Z" fill="#ED4592"/>
<path d="M69.0716 81.4283C69.0716 81.9911 68.9607 82.5484 68.7454 83.0684C68.53 83.5883 68.2143 84.0608 67.8163 84.4587C67.4184 84.8567 66.9459 85.1724 66.426 85.3878C65.906 85.6032 65.3487 85.714 64.7859 85.714H56.2144C55.079 85.7122 53.9906 85.2599 53.1884 84.4563C52.3861 83.6528 51.9355 82.5638 51.9355 81.4283C51.9355 80.2928 52.3861 79.2038 53.1884 78.4002C53.9906 77.5967 55.079 77.1444 56.2144 77.1426H64.7859C65.9225 77.1426 67.0126 77.5941 67.8163 78.3978C68.6201 79.2016 69.0716 80.2916 69.0716 81.4283Z" fill="#ED4592"/>
</g>
<defs>
<clipPath id="clip0_2827_2659">
<rect width="120" height="85.7143" fill="white" transform="translate(0.5 17.1426)"/>
</clipPath>
</defs>
</svg>
