<svg width="121" height="120" viewBox="0 0 121 120" fill="none" xmlns="http://www.w3.org/2000/svg">
<g clip-path="url(#clip0_2827_2661)">
<path d="M100.5 10H20.5C18.3783 10 16.3434 10.8429 14.8431 12.3432C13.3429 13.8435 12.5 15.8784 12.5 18.0001V47.3905C12.5 92.1964 50.4099 107.062 58 109.587C59.6211 110.138 61.3789 110.138 63 109.587C70.6 107.062 108.5 92.1964 108.5 47.3905V18.0001C108.5 15.8784 107.657 13.8435 106.157 12.3432C104.657 10.8429 102.622 10 100.5 10ZM100.5 47.3956C100.5 86.6062 67.325 99.7065 60.5 101.987C53.7351 99.7314 20.5 86.6412 20.5 47.3956V18.0001H100.5V47.3956Z" fill="black" fill-opacity="0.1"/>
<path d="M37.6702 60.8306C36.9231 60.0793 36.5044 59.0624 36.5059 58.0028C36.5073 56.9433 36.9289 55.9276 37.6781 55.1784C38.4273 54.4292 39.443 54.0076 40.5025 54.0061C41.562 54.0046 42.5789 54.4234 43.3302 55.1705L52.5002 64.3406L77.6702 39.1702C78.4215 38.4231 79.4384 38.0044 80.4979 38.0059C81.5574 38.0073 82.5731 38.4289 83.3223 39.1781C84.0715 39.9273 84.493 40.943 84.4945 42.0026C84.496 43.0621 84.0773 44.079 83.3302 44.8303L55.3302 72.8308C54.5805 73.5813 53.5633 74.0033 52.5024 74.0039C51.4416 74.0045 50.4239 73.5836 49.6734 72.8339L49.6702 72.8308L37.6702 60.8306Z" fill="#ED4592"/>
</g>
<defs>
<clipPath id="clip0_2827_2661">
<rect width="96" height="100" fill="white" transform="translate(12.5 10)"/>
</clipPath>
</defs>
</svg>
