<svg width="24" height="25" viewBox="0 0 24 25" fill="none" xmlns="http://www.w3.org/2000/svg">
<path d="M11.029 3.04059C11.326 2.87563 11.6602 2.78906 12 2.78906C12.3398 2.78906 12.674 2.87563 12.971 3.04059L20.486 7.21459C20.6418 7.30123 20.7716 7.42795 20.862 7.58161C20.9524 7.73528 21 7.91032 21 8.08859V16.3236C21.0001 16.6804 20.9047 17.0307 20.7238 17.3383C20.5429 17.6458 20.2829 17.8994 19.971 18.0726L12.971 21.9606C12.674 22.1256 12.3398 22.2121 12 22.2121C11.6602 22.2121 11.326 22.1256 11.029 21.9606L4.029 18.0716C3.71736 17.8985 3.45763 17.6453 3.27671 17.3381C3.0958 17.031 3.00026 16.6811 3 16.3246V8.08859C2.99999 7.91032 3.04764 7.73528 3.13802 7.58161C3.22839 7.42795 3.3582 7.30123 3.514 7.21459L11.029 3.04059Z" stroke="#ED4592" stroke-width="2" stroke-linecap="round" stroke-linejoin="round"/>
<path d="M7.5 5L16.5 10V13.5M6 12.828L9 14.5" stroke="#ED4592" stroke-width="2" stroke-linecap="round" stroke-linejoin="round"/>
<path d="M3 7.5L12 12.5M12 12.5L21 7.5M12 12.5V22.5" stroke="#ED4592" stroke-width="2" stroke-linejoin="round"/>
</svg>
