<svg width="32" height="33" viewBox="0 0 32 33" fill="none" xmlns="http://www.w3.org/2000/svg">
<path d="M27.8667 3.01367H4.13341C3.74443 3.01367 3.37138 3.1682 3.09632 3.44325C2.82127 3.7183 2.66675 4.09135 2.66675 4.48034V28.2137C2.66675 28.6027 2.82127 28.9757 3.09632 29.2508C3.37138 29.5258 3.74443 29.6803 4.13341 29.6803H16.9067V19.347H13.4401V15.347H16.9067V12.347C16.8349 11.6427 16.9181 10.9312 17.1504 10.2624C17.3826 9.5936 17.7584 8.98373 18.2514 8.47555C18.7443 7.96737 19.3424 7.57319 20.0038 7.32066C20.6653 7.06812 21.3739 6.96334 22.0801 7.01367C23.1178 7.00729 24.1551 7.06071 25.1867 7.17367V10.7737H23.0667C21.3867 10.7737 21.0667 11.5737 21.0667 12.7337V15.307H25.0667L24.5467 19.307H21.0667V29.6803H27.8667C28.0594 29.6803 28.2501 29.6424 28.428 29.5687C28.606 29.495 28.7676 29.387 28.9038 29.2508C29.04 29.1146 29.1481 28.9529 29.2218 28.7749C29.2955 28.597 29.3334 28.4063 29.3334 28.2137V4.48034C29.3334 4.28773 29.2955 4.09701 29.2218 3.91907C29.1481 3.74113 29.04 3.57944 28.9038 3.44325C28.7676 3.30706 28.606 3.19902 28.428 3.12532C28.2501 3.05161 28.0594 3.01367 27.8667 3.01367Z" fill="white"/>
</svg>
