<svg width="32" height="33" viewBox="0 0 32 33" fill="none" xmlns="http://www.w3.org/2000/svg">
<path d="M10.4001 3.01367H21.6001C25.8667 3.01367 29.3334 6.48034 29.3334 10.747V21.947C29.3334 23.998 28.5187 25.965 27.0684 27.4153C25.6181 28.8656 23.6511 29.6803 21.6001 29.6803H10.4001C6.13341 29.6803 2.66675 26.2137 2.66675 21.947V10.747C2.66675 8.696 3.48151 6.72899 4.93179 5.27871C6.38207 3.82843 8.34907 3.01367 10.4001 3.01367ZM10.1334 5.68034C8.86037 5.68034 7.63948 6.18605 6.7393 7.08623C5.83913 7.9864 5.33341 9.2073 5.33341 10.4803V22.2137C5.33341 24.867 7.48008 27.0137 10.1334 27.0137H21.8667C23.1398 27.0137 24.3607 26.508 25.2609 25.6078C26.161 24.7076 26.6667 23.4867 26.6667 22.2137V10.4803C26.6667 7.827 24.5201 5.68034 21.8667 5.68034H10.1334ZM23.0001 7.68034C23.4421 7.68034 23.866 7.85593 24.1786 8.16849C24.4912 8.48105 24.6667 8.90498 24.6667 9.347C24.6667 9.78903 24.4912 10.213 24.1786 10.5255C23.866 10.8381 23.4421 11.0137 23.0001 11.0137C22.5581 11.0137 22.1341 10.8381 21.8216 10.5255C21.509 10.213 21.3334 9.78903 21.3334 9.347C21.3334 8.90498 21.509 8.48105 21.8216 8.16849C22.1341 7.85593 22.5581 7.68034 23.0001 7.68034ZM16.0001 9.68034C17.7682 9.68034 19.4639 10.3827 20.7141 11.633C21.9644 12.8832 22.6667 14.5789 22.6667 16.347C22.6667 18.1151 21.9644 19.8108 20.7141 21.061C19.4639 22.3113 17.7682 23.0137 16.0001 23.0137C14.232 23.0137 12.5363 22.3113 11.286 21.061C10.0358 19.8108 9.33341 18.1151 9.33341 16.347C9.33341 14.5789 10.0358 12.8832 11.286 11.633C12.5363 10.3827 14.232 9.68034 16.0001 9.68034ZM16.0001 12.347C14.9392 12.347 13.9218 12.7684 13.1717 13.5186C12.4215 14.2687 12.0001 15.2861 12.0001 16.347C12.0001 17.4079 12.4215 18.4253 13.1717 19.1754C13.9218 19.9256 14.9392 20.347 16.0001 20.347C17.0609 20.347 18.0784 19.9256 18.8285 19.1754C19.5787 18.4253 20.0001 17.4079 20.0001 16.347C20.0001 15.2861 19.5787 14.2687 18.8285 13.5186C18.0784 12.7684 17.0609 12.347 16.0001 12.347Z" fill="white"/>
</svg>
